<svg width="200" height="200" xmlns="http://www.w3.org/2000/svg">
  <defs>
    <linearGradient id="leafGradient" x1="0%" y1="0%" x2="100%" y2="100%">
      <stop offset="0%" style="stop-color:#87A96B;stop-opacity:1" />
      <stop offset="100%" style="stop-color:#5A7344;stop-opacity:1" />
    </linearGradient>
  </defs>
  
  <!-- Background circle -->
  <circle cx="100" cy="100" r="95" fill="#FEFCF8" stroke="#87A96B" stroke-width="3"/>
  
  <!-- Leaf shape -->
  <path d="M100 40 C120 50, 140 70, 140 100 C140 130, 120 150, 100 160 C80 150, 60 130, 60 100 C60 70, 80 50, 100 40 Z" 
        fill="url(#leafGradient)"/>
  
  <!-- Leaf vein -->
  <path d="M100 45 L100 155" stroke="#FEFCF8" stroke-width="2"/>
  <path d="M100 70 C110 75, 115 80, 120 90" stroke="#FEFCF8" stroke-width="1" fill="none"/>
  <path d="M100 70 C90 75, 85 80, 80 90" stroke="#FEFCF8" stroke-width="1" fill="none"/>
  <path d="M100 110 C110 115, 115 120, 120 130" stroke="#FEFCF8" stroke-width="1" fill="none"/>
  <path d="M100 110 C90 115, 85 120, 80 130" stroke="#FEFCF8" stroke-width="1" fill="none"/>
  
  <!-- Company initials -->
  <text x="100" y="185" font-family="Arial, sans-serif" font-size="16" font-weight="bold" 
        text-anchor="middle" fill="#5A7344">F&F</text>
</svg>
