<svg width="24" height="24" viewBox="0 0 24 24" fill="none" xmlns="http://www.w3.org/2000/svg">
  <path d="M12 22C17.5228 22 22 17.5228 22 12C22 6.47715 17.5228 2 12 2C6.47715 2 2 6.47715 2 12C2 17.5228 6.47715 22 12 22Z" stroke="#5A7344" stroke-width="2" stroke-linecap="round" stroke-linejoin="round"/>
  <path d="M8 12C8 12 10 14 12 14C14 14 16 12 16 12" stroke="#5A7344" stroke-width="2" stroke-linecap="round" stroke-linejoin="round"/>
  <path d="M9 9H9.01" stroke="#5A7344" stroke-width="2" stroke-linecap="round" stroke-linejoin="round"/>
  <path d="M15 9H15.01" stroke="#5A7344" stroke-width="2" stroke-linecap="round" stroke-linejoin="round"/>
  <path d="M12 2C12 2 15 6 15 10C15 12.21 13.21 14 11 14C8.79 14 7 12.21 7 10C7 6 12 2 12 2Z" fill="#87A96B" stroke="#5A7344" stroke-width="1"/>
</svg>
