<svg width="24" height="24" viewBox="0 0 24 24" fill="none" xmlns="http://www.w3.org/2000/svg">
  <path d="M12 22S2 16 2 9C2 7.9 2.9 7 4 7C5.1 7 6 7.9 6 9C6 7.9 6.9 7 8 7S10 7.9 10 9C10 7.9 10.9 7 12 7S14 7.9 14 9C14 7.9 14.9 7 16 7S18 7.9 18 9C18 7.9 18.9 7 20 7C21.1 7 22 7.9 22 9C22 16 12 22 12 22Z" fill="#87A96B" stroke="#5A7344" stroke-width="1" stroke-linecap="round" stroke-linejoin="round"/>
  <path d="M9 12L11 14L15 10" stroke="#5A7344" stroke-width="2" stroke-linecap="round" stroke-linejoin="round"/>
</svg>
